<svg id="visual" viewBox="0 0 960 540" width="960" height="540" xmlns="http://www.w3.org/2000/svg" xmlns:xlink="http://www.w3.org/1999/xlink" version="1.1"><path d="M0 298L32 269.2C64 240.3 128 182.7 192 179C256 175.3 320 225.7 384 250C448 274.3 512 272.7 576 256.5C640 240.3 704 209.7 768 202.5C832 195.3 896 211.7 928 219.8L960 228L960 0L928 0C896 0 832 0 768 0C704 0 640 0 576 0C512 0 448 0 384 0C320 0 256 0 192 0C128 0 64 0 32 0L0 0Z" fill="#001122"></path><path d="M0 422L32 424.7C64 427.3 128 432.7 192 439.8C256 447 320 456 384 453.3C448 450.7 512 436.3 576 431C640 425.7 704 429.3 768 437.5C832 445.7 896 458.3 928 464.7L960 471L960 226L928 217.8C896 209.7 832 193.3 768 200.5C704 207.7 640 238.3 576 254.5C512 270.7 448 272.3 384 248C320 223.7 256 173.3 192 177C128 180.7 64 238.3 32 267.2L0 296Z" fill="#445c6e"></path><path d="M0 541L32 541C64 541 128 541 192 541C256 541 320 541 384 541C448 541 512 541 576 541C640 541 704 541 768 541C832 541 896 541 928 541L960 541L960 469L928 462.7C896 456.3 832 443.7 768 435.5C704 427.3 640 423.7 576 429C512 434.3 448 448.7 384 451.3C320 454 256 445 192 437.8C128 430.7 64 425.3 32 422.7L0 420Z" fill="#92b4c2"></path></svg>